<svg xmlns="http://www.w3.org/2000/svg" width="32" height="32" viewBox="0 0 32 36">
  <ellipse cx="16" cy="22" rx="13" ry="13" fill="#E8143C"/>
  <ellipse cx="11" cy="18" rx="1.2" ry="1.5" fill="#FFF5EC" opacity="0.7"/>
  <ellipse cx="16" cy="16" rx="1.2" ry="1.5" fill="#FFF5EC" opacity="0.7"/>
  <ellipse cx="21" cy="18" rx="1.2" ry="1.5" fill="#FFF5EC" opacity="0.7"/>
  <ellipse cx="9" cy="24" rx="1.2" ry="1.5" fill="#FFF5EC" opacity="0.7"/>
  <ellipse cx="16" cy="26" rx="1.2" ry="1.5" fill="#FFF5EC" opacity="0.7"/>
  <ellipse cx="23" cy="24" rx="1.2" ry="1.5" fill="#FFF5EC" opacity="0.7"/>
  <path d="M16 10 C14 6 10 5 9 8 C11 9 13 10 16 10Z" fill="#2D6A4F"/>
  <path d="M16 10 C18 6 22 5 23 8 C21 9 19 10 16 10Z" fill="#40916C"/>
  <path d="M16 10 C16 6 14 3 12 4 C13 6 14 8 16 10Z" fill="#2D6A4F"/>
  <path d="M16 10 C16 6 18 3 20 4 C19 6 18 8 16 10Z" fill="#40916C"/>
</svg>
